<svg width="110" height="22" viewBox="0 0 110 22" fill="none" xmlns="http://www.w3.org/2000/svg">
<path d="M1.89205 18V4.90909H2.69105V12.5092H2.78054L9.68395 4.90909H10.745L5.0625 11.103L10.6939 18H9.69673L4.55114 11.6783L2.69105 13.7365V18H1.89205ZM13.9938 4.90909V18H13.1948V4.90909H13.9938ZM17.7827 18V4.90909H21.8161C22.6428 4.90909 23.3544 5.07102 23.951 5.39489C24.5476 5.71875 25.0057 6.16832 25.3253 6.74361C25.6449 7.31463 25.8047 7.9794 25.8047 8.73793C25.8047 9.48793 25.6449 10.1484 25.3253 10.7195C25.0057 11.2862 24.5476 11.7294 23.951 12.049C23.3587 12.3686 22.6491 12.5284 21.8224 12.5284H18.2109V11.7805H21.8033C22.4766 11.7805 23.0518 11.6548 23.5291 11.4034C24.0064 11.152 24.3729 10.8004 24.6286 10.3487C24.8842 9.89276 25.0121 9.35582 25.0121 8.73793C25.0121 8.11577 24.8842 7.57457 24.6286 7.11435C24.3729 6.64986 24.0043 6.28977 23.5227 6.03409C23.0455 5.77841 22.4702 5.65057 21.7969 5.65057H18.5817V18H17.7827ZM23.1584 12.0682L26.38 18H25.4595L22.2571 12.0682H23.1584ZM39.4102 11.4545C39.4102 12.8054 39.1758 13.9858 38.707 14.9957C38.2383 16.0014 37.5863 16.7834 36.7511 17.3416C35.9201 17.8999 34.9613 18.179 33.8746 18.179C32.7837 18.179 31.8207 17.8999 30.9854 17.3416C30.1545 16.7791 29.5046 15.995 29.0359 14.9893C28.5671 13.9794 28.3327 12.8011 28.3327 11.4545C28.3327 10.1037 28.5671 8.92543 29.0359 7.91974C29.5089 6.91406 30.1609 6.1321 30.9918 5.57386C31.8228 5.01136 32.7837 4.73011 33.8746 4.73011C34.9613 4.73011 35.9201 5.00923 36.7511 5.56747C37.5863 6.12571 38.2383 6.9098 38.707 7.91974C39.1758 8.92543 39.4102 10.1037 39.4102 11.4545ZM38.6303 11.4545C38.6303 10.2401 38.4258 9.1875 38.0167 8.29688C37.6119 7.40625 37.0515 6.71804 36.3356 6.23224C35.6197 5.74219 34.7994 5.49716 33.8746 5.49716C32.9499 5.49716 32.1296 5.74006 31.4137 6.22585C30.6978 6.70739 30.1353 7.3956 29.7262 8.29048C29.3214 9.18111 29.119 10.2358 29.119 11.4545C29.119 12.6605 29.3192 13.7109 29.7198 14.6058C30.1246 15.4964 30.685 16.1868 31.4009 16.6768C32.1168 17.1669 32.9414 17.4119 33.8746 17.4119C34.7994 17.4119 35.6197 17.169 36.3356 16.6832C37.0515 16.1932 37.6119 15.5028 38.0167 14.6122C38.4258 13.7216 38.6303 12.669 38.6303 11.4545ZM42.5327 18V4.90909H43.3317V12.5092H43.4212L50.3246 4.90909H51.3857L45.7031 11.103L51.3345 18H50.3374L45.1918 11.6783L43.3317 13.7365V18H42.5327ZM62.7012 4.90909H63.5002V13.5767C63.5002 14.4673 63.2935 15.2621 62.8801 15.9609C62.4668 16.6555 61.8958 17.2053 61.1671 17.6101C60.4426 18.0107 59.6096 18.2109 58.6678 18.2109C57.7303 18.2109 56.8972 18.0107 56.1685 17.6101C55.4398 17.2053 54.8667 16.6534 54.449 15.9545C54.0357 15.2557 53.8311 14.4631 53.8354 13.5767V4.90909H54.6344V13.532C54.6344 14.2862 54.8049 14.9574 55.1458 15.5455C55.4909 16.1335 55.9661 16.598 56.5712 16.9389C57.1763 17.2756 57.8752 17.4439 58.6678 17.4439C59.4604 17.4439 60.1593 17.2756 60.7644 16.9389C61.3695 16.598 61.8425 16.1335 62.1834 15.5455C62.5286 14.9574 62.7012 14.2862 62.7012 13.532V4.90909Z" fill="#DBE6FF"/>
<rect x="66" width="43" height="22" rx="4" fill="#DBE6FF"/>
<path d="M78.64 9.5H85.22V11.76H78.64V9.5ZM77.66 9.5H80.08V17.38C80.08 18.24 80.26 18.36 81.22 18.36C81.66 18.36 83.52 18.36 84.06 18.36C84.96 18.36 85.12 17.9 85.24 15.38C85.78 15.78 86.8 16.18 87.48 16.34C87.18 19.66 86.5 20.64 84.24 20.64C83.68 20.64 81.44 20.64 80.92 20.64C78.42 20.64 77.66 19.94 77.66 17.38V9.5ZM77.6 3.02H86.4V12.78H83.98V5.3H77.6V3.02ZM69.56 8.16H76.02V9.96H69.56V8.16ZM69.68 2.64H76.08V4.46H69.68V2.64ZM69.56 10.88H76.02V12.7H69.56V10.88ZM68.58 5.34H76.82V7.24H68.58V5.34ZM70.66 13.66H75.96V19.74H70.66V17.84H73.86V15.56H70.66V13.66ZM69.5 13.66H71.58V20.54H69.5V13.66ZM105.52 11.02L107.4 12.16C106.56 13.08 105.68 14.04 104.96 14.68L103.46 13.68C104.12 12.98 105.02 11.84 105.52 11.02ZM96.62 12.32L98.18 11.3C99 12.04 99.88 13.08 100.26 13.84L98.58 14.96C98.26 14.2 97.4 13.1 96.62 12.32ZM97.48 2.7H105.74V9.72H103.52V4.66H97.48V2.7ZM97.92 5.72H104.78V7.56H97.92V5.72ZM96.52 8.58H107.24V10.62H96.52V8.58ZM100.64 9.62H102.86V18.54C102.86 19.52 102.74 20.1 102.1 20.44C101.5 20.78 100.7 20.8 99.6 20.8C99.54 20.2 99.28 19.34 99.02 18.74C99.58 18.76 100.18 18.76 100.38 18.76C100.58 18.76 100.64 18.7 100.64 18.48V9.62ZM95.94 17.52C96.96 16.94 98.46 16 99.94 15.04L100.66 16.84C99.48 17.74 98.18 18.68 97.04 19.44L95.94 17.52ZM102.8 11.04C103.44 13.42 104.96 16.4 107.7 17.8C107.22 18.22 106.5 19.16 106.16 19.76C103.54 18.08 102.1 14.64 101.48 12.32L102.8 11.04ZM90 7H95.92V9H90V7ZM89.04 10.46H96.34V12.5H89.04V10.46ZM89.24 13.62L90.76 13.24C91.1 14.36 91.38 15.76 91.48 16.72L89.86 17.14C89.82 16.18 89.54 14.74 89.24 13.62ZM88.82 18.2C90.72 17.92 93.56 17.4 96.26 16.92L96.44 18.9C93.94 19.42 91.3 19.98 89.28 20.38L88.82 18.2ZM94.78 13.08L96.5 13.5C96.14 14.64 95.82 15.9 95.52 16.74L94.08 16.34C94.34 15.44 94.64 14.04 94.78 13.08ZM91.78 7.8H93.84V18.58L91.78 18.94V7.8ZM91.68 2.02H92.94V2.46H93.62V3.08C92.84 4.6 91.62 6.66 89.64 8.46C89.32 7.98 88.64 7.22 88.2 6.9C89.88 5.46 91.06 3.58 91.68 2.02ZM91.98 2.02H93.66C94.82 3.02 96.3 4.46 97.02 5.48L95.48 7.32C94.84 6.3 93.48 4.62 92.4 3.72H91.98V2.02Z" fill="#121419"/>
</svg>
